{
	"asset":{
		"generator":"Khronos glTF Blender I/O v3.6.27",
		"version":"2.0"
	},
	"scene":0,
	"scenes":[
		{
			"name":"Scene",
			"nodes":[
				0
			]
		}
	],
	"nodes":[
		{
			"mesh":0,
			"name":"Object_2",
			"rotation":[
				0,
				0,
				-1,
				0
			],
			"translation":[
				-0.011138038709759712,
				-0.002862120745703578,
				0.17913468182086945
			]
		}
	],
	"materials":[
		{
			"doubleSided":true,
			"name":"material_0",
			"pbrMetallicRoughness":{
				"metallicFactor":0,
				"roughnessFactor":0.6000000238418579
			}
		}
	],
	"meshes":[
		{
			"name":"Object_0",
			"primitives":[
				{
					"attributes":{
						"POSITION":0,
						"NORMAL":1,
						"TEXCOORD_0":2
					},
					"indices":3,
					"material":0
				}
			]
		}
	],
	"accessors":[
		{
			"bufferView":0,
			"componentType":5126,
			"count":391,
			"max":[
				0.11421500146389008,
				0.09160900115966797,
				-0.0003800000122282654
			],
			"min":[
				-0.18787600100040436,
				-0.06595300137996674,
				-0.4439980089664459
			],
			"type":"VEC3"
		},
		{
			"bufferView":1,
			"componentType":5126,
			"count":391,
			"type":"VEC3"
		},
		{
			"bufferView":2,
			"componentType":5126,
			"count":391,
			"type":"VEC2"
		},
		{
			"bufferView":3,
			"componentType":5123,
			"count":1881,
			"type":"SCALAR"
		}
	],
	"bufferViews":[
		{
			"buffer":0,
			"byteLength":4692,
			"byteOffset":0,
			"target":34962
		},
		{
			"buffer":0,
			"byteLength":4692,
			"byteOffset":4692,
			"target":34962
		},
		{
			"buffer":0,
			"byteLength":3128,
			"byteOffset":9384,
			"target":34962
		},
		{
			"buffer":0,
			"byteLength":3762,
			"byteOffset":12512,
			"target":34963
		}
	],
	"buffers":[
		{
			"byteLength":16276,
			"uri":"hand.bin"
		}
	]
}
