{
	"asset":{
		"generator":"Khronos glTF Blender I/O v3.6.27",
		"version":"2.0"
	},
	"scene":0,
	"scenes":[
		{
			"name":"Scene",
			"nodes":[
				0
			]
		}
	],
	"nodes":[
		{
			"mesh":0,
			"name":"Note3_Note_0",
			"rotation":[
				-0.5,
				-0.5,
				-0.5,
				0.5
			],
			"translation":[
				0.002184665761888027,
				0.12376615405082703,
				0
			]
		}
	],
	"materials":[
		{
			"doubleSided":true,
			"name":"Note.002",
			"pbrMetallicRoughness":{
				"baseColorFactor":[
					0,
					0,
					0,
					1
				],
				"metallicFactor":0
			}
		}
	],
	"meshes":[
		{
			"name":"Note3_Note_0.002",
			"primitives":[
				{
					"attributes":{
						"POSITION":0,
						"NORMAL":1,
						"TEXCOORD_0":2
					},
					"indices":3,
					"material":0
				}
			]
		}
	],
	"accessors":[
		{
			"bufferView":0,
			"componentType":5126,
			"count":1655,
			"max":[
				0.043136510998010635,
				0.12520097196102142,
				0.3021557629108429
			],
			"min":[
				-0.04313642904162407,
				-0.10294003784656525,
				-0.1212763860821724
			],
			"type":"VEC3"
		},
		{
			"bufferView":1,
			"componentType":5126,
			"count":1655,
			"type":"VEC3"
		},
		{
			"bufferView":2,
			"componentType":5126,
			"count":1655,
			"type":"VEC2"
		},
		{
			"bufferView":3,
			"componentType":5123,
			"count":4452,
			"type":"SCALAR"
		}
	],
	"bufferViews":[
		{
			"buffer":0,
			"byteLength":19860,
			"byteOffset":0,
			"target":34962
		},
		{
			"buffer":0,
			"byteLength":19860,
			"byteOffset":19860,
			"target":34962
		},
		{
			"buffer":0,
			"byteLength":13240,
			"byteOffset":39720,
			"target":34962
		},
		{
			"buffer":0,
			"byteLength":8904,
			"byteOffset":52960,
			"target":34963
		}
	],
	"buffers":[
		{
			"byteLength":61864,
			"uri":"note.bin"
		}
	]
}
