{
	"asset":{
		"generator":"Khronos glTF Blender I/O v3.6.27",
		"version":"2.0"
	},
	"scene":0,
	"scenes":[
		{
			"name":"Scene",
			"nodes":[
				0
			]
		}
	],
	"nodes":[
		{
			"mesh":0,
			"name":"Note3_Note_0"
		}
	],
	"materials":[
		{
			"doubleSided":true,
			"name":"Note.002",
			"pbrMetallicRoughness":{
				"baseColorFactor":[
					0,
					0,
					0,
					1
				],
				"metallicFactor":0
			}
		}
	],
	"meshes":[
		{
			"name":"Note3_Note_0.002",
			"primitives":[
				{
					"attributes":{
						"POSITION":0,
						"NORMAL":1,
						"TEXCOORD_0":2
					},
					"indices":3,
					"material":0
				}
			]
		}
	],
	"accessors":[
		{
			"bufferView":0,
			"componentType":5126,
			"count":1659,
			"max":[
				0.2942785322666168,
				0.9848664402961731,
				0.10063748061656952
			],
			"min":[
				-0.23797444999217987,
				-0.003000706434249878,
				-0.100637286901474
			],
			"type":"VEC3"
		},
		{
			"bufferView":1,
			"componentType":5126,
			"count":1659,
			"type":"VEC3"
		},
		{
			"bufferView":2,
			"componentType":5126,
			"count":1659,
			"type":"VEC2"
		},
		{
			"bufferView":3,
			"componentType":5123,
			"count":4452,
			"type":"SCALAR"
		}
	],
	"bufferViews":[
		{
			"buffer":0,
			"byteLength":19908,
			"byteOffset":0,
			"target":34962
		},
		{
			"buffer":0,
			"byteLength":19908,
			"byteOffset":19908,
			"target":34962
		},
		{
			"buffer":0,
			"byteLength":13272,
			"byteOffset":39816,
			"target":34962
		},
		{
			"buffer":0,
			"byteLength":8904,
			"byteOffset":53088,
			"target":34963
		}
	],
	"buffers":[
		{
			"byteLength":61992,
			"uri":"note.bin"
		}
	]
}
